<svg viewBox="0 0 1056 625"
  xmlns="http://www.w3.org/2000/svg">
  <g fill="#999">
    <g transform="matrix(3 0 0 3 672 240)">
      <path d="m64 0 64 32-64 32-64-32z"/>
      <path d="m64 0 64 32-64 32-64-32z"/>
    </g>
    <g transform="matrix(3 0 0 3 576 288)">
      <path d="m64 0 64 32-64 32-64-32z"/>
      <path d="m64 0 64 32-64 32-64-32z"/>
    </g>
    <g transform="matrix(3 0 0 3 384 384)">
      <path d="m64 0 64 32-64 32-64-32z"/>
      <path d="m64 0 64 32-64 32-64-32z"/>
    </g>
    <g transform="matrix(3 0 0 3 480 144)">
      <path d="m64 0 64 32-64 32-64-32z"/>
      <path d="m64 0 64 32-64 32-64-32z"/>
    </g>
    <g transform="matrix(3 0 0 3 384 192)">
      <path d="m64 0 64 32-64 32-64-32z"/>
      <path d="m64 0 64 32-64 32-64-32z"/>
    </g>
    <g transform="matrix(3 0 0 3 192 288)">
      <path d="m64 0 64 32-64 32-64-32z"/>
      <path d="m64 0 64 32-64 32-64-32z"/>
    </g>
    <g transform="matrix(3 0 0 3 0 384)">
      <path d="m64 0 64 32-64 32-64-32z"/>
      <path d="m64 0 64 32-64 32-64-32z"/>
    </g>
  </g>
  <a class="svg-link" href="https://catalyze.theater/house/first-floor">
    <g class="svg-item basement-to-first-floor">
      <g transform="matrix(-3.5 0 0 3.5 256 492)">
        <path d="m26 13-4 2v-1l4-2z" opacity=".11"/>
        <path d="m26 13-4 2h-4v-1l4-2h4z" fill="#656565"/>
        <path d="m18 14h4v1h-4z" opacity=".29"/>
        <path d="m28 6-2 1-2-1-2 1-2-1-2 1-2-1-16 8v1l4 2 2-1 2 1 2-1 2 1 2-1 2 1 16-8v-1z" fill="#762c07"/>
        <path d="m9 15.5-1 .5v1l2-1z" opacity=".11"/>
        <path d="m4 14 4 2v1l-4-2z" opacity=".29"/>
        <path d="m13 15.5-1 .5v1l2-1z" opacity=".11"/>
        <path d="m8 14 4 2v1l-4-2z" opacity=".29"/>
        <path d="m32 8-16 8v1l16-8z" opacity=".11"/>
        <path d="m12 14 4 2v1l-4-2z" opacity=".29"/>
        <path d="m0 14 4 2v1l-4-2z" opacity=".29"/>
        <path d="m5 15.5-1 .5v1l2-1z" opacity=".11"/>
      </g>
      <g transform="matrix(-3.5 0 0 3.5 200 492)">
        <path d="m26 13-4 2v-1l4-2z" opacity=".11"/>
        <path d="m26 13-4 2h-4v-1l4-2h4z" fill="#656565"/>
        <path d="m18 14h4v1h-4z" opacity=".29"/>
        <path d="m28 6-2 1-2-1-2 1-2-1-2 1-2-1-16 8v1l4 2 2-1 2 1 2-1 2 1 2-1 2 1 16-8v-1z" fill="#762c07"/>
        <path d="m9 15.5-1 .5v1l2-1z" opacity=".11"/>
        <path d="m4 14 4 2v1l-4-2z" opacity=".29"/>
        <path d="m13 15.5-1 .5v1l2-1z" opacity=".11"/>
        <path d="m8 14 4 2v1l-4-2z" opacity=".29"/>
        <path d="m32 8-16 8v1l16-8z" opacity=".11"/>
        <path d="m12 14 4 2v1l-4-2z" opacity=".29"/>
        <path d="m0 14 4 2v1l-4-2z" opacity=".29"/>
        <path d="m5 15.5-1 .5v1l2-1z" opacity=".11"/>
      </g>  
    </g>  
  </a>
  <g fill="#999" transform="matrix(2.5 0 0 2.5 256 464)">
    <path d="m64 0 64 32-64 32-64-32z"/>
    <path d="m64 0 64 32-64 32-64-32z"/>
  </g>
  <g transform="matrix(6 0 0 6 480 0)">
    <path d="m0 16 32-16v24l-32 16z" fill="#656565"/>
    <path d="m32 24-32 16v-1l32-16z" fill="#999"/>
    <path d="m32 24-32 16v-24l32-16z" opacity=".29"/>
  </g>
  <g transform="matrix(6 0 0 6 384 48)">
    <path d="m0 16 32-16v24l-32 16z" fill="#656565"/>
    <path d="m32 24-32 16v-1l32-16z" fill="#999"/>
    <path d="m32 24-32 16v-24l32-16z" opacity=".29"/>
  </g>
  <g transform="matrix(6 0 0 6 288 96)">
    <path d="m0 16 32-16v24l-32 16z" fill="#656565"/>
    <path d="m32 24-32 16v-1l32-16z" fill="#999"/>
    <path d="m32 24-32 16v-24l32-16z" opacity=".29"/>
  </g>
  <g transform="matrix(6 0 0 6 192 144)">
    <path d="m0 16 32-16v24l-32 16z" fill="#656565"/>
    <path d="m32 24-32 16v-1l32-16z" fill="#999"/>
    <path d="m32 24-32 16v-24l32-16z" opacity=".29"/>
  </g>
  <g transform="matrix(6 0 0 6 96 192)">
    <path d="m0 16 32-16v24l-32 16z" fill="#656565"/>
    <path d="m32 24-32 16v-1l32-16z" fill="#999"/>
    <path d="m32 24-32 16v-24l32-16z" opacity=".29"/>
  </g>
  <g transform="matrix(6 0 0 6 0 240)">
    <path d="m0 16 32-16v24l-32 16z" fill="#656565"/>
    <path d="m32 24-32 16v-1l32-16z" fill="#999"/>
    <path d="m32 24-32 16v-24l32-16z" opacity=".29"/>
  </g>
  <g transform="matrix(6 0 0 6 672 0)">
    <path d="m0 0 32 16v24l-32-16z" fill="#6c7175"/>
    <path d="m32 40-32-16v-1l32 16z" fill="#999"/>
    <path d="m32 40-32-16v-24l32 16z" opacity=".11"/>
  </g>
  <g transform="matrix(6 0 0 6 768 48)">
    <path d="m0 0 32 16v24l-32-16z" fill="#6c7175"/>
    <path d="m32 40-32-16v-1l32 16z" fill="#999"/>
    <path d="m32 40-32-16v-24l32 16z" opacity=".11"/>
  </g>
  <g transform="matrix(6 0 0 6 864 96)">
    <path d="m0 0 32 16v24l-32-16z" fill="#6c7175"/>
    <path d="m32 40-32-16v-1l32 16z" fill="#999"/>
    <path d="m32 40-32-16v-24l32 16z" opacity=".11"/>
  </g>
  <g transform="matrix(.9 0 0 .9 352 160)">
    <path d="m0 80v80l40 20 80-40v-80l-40-20z" fill="#999"/>
    <path d="m40 180-40-20v-80l40 20z" opacity=".11"/>
    <path d="m40 100v80l80-40v-80z" fill="#656565"/>
    <path d="m40 100v80l80-40v-80z" opacity=".29"/>
    <path d="m40 180 2-1v-80l-2 1z" opacity=".2"/>
    <path d="m78 161 4-2v-80l-4 2z" opacity=".2"/>
    <path d="m118 141 2-1v-80l-2 1z" opacity=".2"/>
  </g>
  <g transform="matrix(.43333333 0 0 .43333333 352 178.666667)">
    <path d="m0 119.8 80 40 160-80-80-40z" fill="#999"/>
    <path d="m20 119.8 60 30 140-70-60-30z" fill="#656565"/>
    <path d="m160 79.8v-30l-54 27 30 15z" opacity=".29"/>
    <path d="m160 79.8 30 15 30-15-60-30z" opacity=".11"/>
    <path d="m102 100.8v-22l-40 20 22 11z" opacity=".29"/>
    <path d="m102 100.8 38 19 22-11-60-30z" opacity=".11"/>
    <ellipse cx="160" cy="98.8" opacity=".2" rx="8" ry="4"/>
    <path d="m28 119.8 2 1 34-17-2-1z" opacity=".2"/>
    <path d="m34 122.8 2 1 34-17-2-1z" opacity=".2"/>
    <path d="m40 125.8 2 1 34-17-2-1z" opacity=".2"/>
    <path d="m46 128.8 2 1 34-17-2-1z" opacity=".2"/>
    <path d="m52 131.8 2 1 34-17-2-1z" opacity=".2"/>
    <path d="m58 134.8 2 1 34-17-2-1z" opacity=".2"/>
    <path d="m64 137.8 2 1 34-17-2-1z" opacity=".2"/>
    <path d="m70 140.8 2 1 34-17-2-1z" opacity=".2"/>
    <path d="m76 143.8 2 1 34-17-2-1z" opacity=".2"/>
    <path d="m108.6 122.1c.9-.6 1.4-1.4 1.4-2.3 0-2.2-3.6-4-8-4-1.7 0-3.3.3-4.6.7z" opacity=".2"/>
    <path d="m120.6 16.6c-9.5-6.7-22.6.4-22.6 12v45.2c0 1.1 1.8 2 4 2s4-.9 4-2v-43.9c0-5.2 5.5-8.6 10.2-6.3 3.5 1.7 5.7 5.3 5.7 9.2v4c0 1.1 1.8 2 4 2s4-.9 4-2v-1.6-.8c-.1-7.2-3.6-13.8-9.3-17.8z" fill="#656565"/>
    <path d="m120.6 16.6c-9.5-6.7-22.6.4-22.6 12v45.2c0 1.1 1.8 2 4 2s4-.9 4-2v-43.9c0-5.2 5.5-8.6 10.2-6.3 3.5 1.7 5.7 5.3 5.7 9.2v4c0 1.1 1.8 2 4 2s4-.9 4-2v-2.4c-.1-7.2-3.6-13.8-9.3-17.8z" fill="#656565"/>
    <path d="m113.1 22.6c-7.3-.7-10.2 3.8-10.2 11.3v41.7c1.7-.2 3-1 3-1.9v-43.8c0-4.3 3.7-7.4 7.7-7-.1-.1-.3-.3-.5-.3z" opacity=".2"/>
    <path d="m100.2 63.1c-.8-.4-1.6-.5-2.2-.2l-1.6.8c-.9-3-2.3-5.3-3.3-5.9-.1-.1-.2-.1-.4-.1-.1 0-2.1.9-2.2.9-1.3.6-1.8 6-1.5 10.1v.1c.1 1.7 1.5 3.6 3.1 4.5.5.3 1 .4 1.4.4.3 0 .5 0 .8-.2 0 0 8-4 8.1-4.1.5-.3.8-.9.8-1.7.1-1.6-1.3-3.7-3-4.6z" fill="#656565"/>
    <path d="m121.1 18.5c-1.4-1-2.9-1.6-4.4-1.9.6.3 1.3.6 1.9 1.1 4.8 3.4 7.7 8.9 7.7 14.8v4.4c1.4-.2 2.5-.8 2.5-1.6v-1.3-.7c0-5.9-2.9-11.4-7.7-14.8z" fill="#fff" opacity=".2"/>
    <path d="m95.3 71.8c-.1 1.7-1.4 2.4-3.1 1.6-1.7-.9-3-2.9-3.1-4.6-.4-4.5.3-10.9 2-10 1.6.8 4.4 7.1 4.2 13z" opacity=".11"/>
    <path d="m102.7 65.7-7.5 3.7c.1.8.1 1.6.1 2.4 0 .9-.3 1.5-.9 1.7.2-.1 8-4 8.1-4.1.5-.3.8-.9.8-1.7 0-.6-.2-1.3-.6-2z" opacity=".29"/>
  </g>
  <g class="svg-item washer-dryer">
    <g transform="matrix(.575 0 0 .575 200 262)">
      <path d="m0 80v120l80 40 80-40v-120z" fill="#e5e5e5"/>
      <path d="m0 80v6l78 39v12l2 1 80-40v-18l-80-40z" fill="#999"/>
      <path d="m80 138-2-1v102l2 1 80-40v-102z" fill="#cc291f"/>
      <path d="m94 117v10l24-12v-10z" fill="#2d3134"/>
      <path d="m80 240-80-40v-120l80 40z" opacity=".11"/>
      <path d="m80 240 80-40v-4l-80 40-4-2v4z" opacity=".2"/>
      <path d="m96 118v6l20-10v-6z" fill="#39c"/>
      <path d="m80 138-2-1v2l2 1 4-2v6l24-12v-6l52-26v-2z" opacity=".2"/>
      <path d="m86 135v6l20-10v-6z" opacity=".2"/>
      <path d="m80 120v120l80-40v-120z" opacity=".29"/>
      <g fill="#2d3134">
        <path d="m123 110.3c0 .8.6 1.1 1.4.7s1.4-1.3 1.4-2.1-.6-1.1-1.4-.7-1.4 1.3-1.4 2.1z"/>
        <path d="m129 107.3c0 .8.6 1.1 1.4.7s1.4-1.3 1.4-2.1-.6-1.1-1.4-.7-1.4 1.3-1.4 2.1z"/>
        <path d="m135 104.3c0 .8.6 1.1 1.4.7s1.4-1.3 1.4-2.1-.6-1.1-1.4-.7-1.4 1.3-1.4 2.1z"/>
        <path d="m141 101.3c0 .8.6 1.1 1.4.7s1.4-1.3 1.4-2.1-.6-1.1-1.4-.7-1.4 1.3-1.4 2.1z"/>
        <path d="m123 106.1c0 .8.6 1.1 1.4.7s1.4-1.3 1.4-2.1-.6-1.1-1.4-.7-1.4 1.4-1.4 2.1z"/>
        <path d="m129 103.1c0 .8.6 1.1 1.4.7s1.4-1.3 1.4-2.1-.6-1.1-1.4-.7-1.4 1.4-1.4 2.1z"/>
        <path d="m135 100.1c0 .8.6 1.1 1.4.7s1.4-1.3 1.4-2.1-.6-1.1-1.4-.7-1.4 1.4-1.4 2.1z"/>
        <path d="m141 97.1c0 .8.6 1.1 1.4.7s1.4-1.3 1.4-2.1-.6-1.1-1.4-.7-1.4 1.4-1.4 2.1z"/>
        <path d="m151.1 90.4c.8-.4 1.6-.5 2.2-.2l1.6.8c.6.3 1 .9 1 1.8 0 1.7-1.4 3.8-3.1 4.7-.9.4-1.6.5-2.2.2 0 0-1.6-.8-1.7-.8-.5-.3-.8-.9-.8-1.7-.1-1.9 1.3-4 3-4.8z"/>
      </g>
      <path d="m150.5 97.6c-.2-.1-1.5-.8-1.6-.8-.5-.3-.8-.9-.8-1.7 0-.7.2-1.5.6-2.2l1.6.8c-.4.7-.6 1.5-.6 2.2-.1.8.2 1.4.8 1.7z" opacity=".11"/>
      <path d="m149.6 95.9c0 1.7 1.4 2.4 3.1 1.6 1.7-.9 3.1-3 3.1-4.7s-1.4-2.4-3.1-1.6-3.1 2.9-3.1 4.7z" opacity=".29"/>
      <path d="m93.8 185.9c0 16.4 13.3 23 29.6 14.8s29.6-28.1 29.6-44.4-13.3-23-29.6-14.8c-16.4 8.2-29.6 28.1-29.6 44.4z" opacity=".1"/>
      <path d="m120.3 139.5c7.9-3.9 15-4.4 20.3-2l2.1 1.1c5.7 2.5 9.3 8.4 9.3 16.8 0 16.4-13.3 36.2-29.6 44.4-8.1 4-15.4 4.5-20.8 1.9 0 0-2-1-3.2-1.7-4.8-2.9-7.7-8.4-7.7-16 0-16.5 13.3-36.3 29.6-44.5z" fill="#e5e5e5"/>
      <path d="m101.3 201.5c-2.1-1-1.8-.9-2.9-1.6-4.8-2.9-7.7-8.4-7.7-16 0-6.6 2.2-13.7 5.8-20.4l2.1 1.1c-3.6 6.7-5.8 13.9-5.8 20.4 0 8.1 3.2 13.8 8.5 16.5z" opacity=".11"/>
      <path d="m92.8 185c0 16.4 13.3 23 29.6 14.8 16.4-8.2 29.6-28.1 29.6-44.4s-13.3-23-29.6-14.8-29.6 28-29.6 44.4z" opacity=".29"/>
      <path d="m138 162.3c0-3.5.8-7.3 2.3-10.9.7-1.7.1-3.7-1.5-4.6-4.1-2.4-9.9-2.2-16.4 1-12.4 6.2-22.4 21.2-22.4 33.5s10 17.3 22.4 11.2c7.3-3.7 13.8-10.4 17.9-17.9.6-1.2.6-2.6-.1-3.8-1.4-2.2-2.2-5-2.2-8.5z" fill="#39c"/>
      <path d="m138 162.3c0-3.5.8-7.3 2.3-10.9.7-1.7.1-3.7-1.5-4.6-4.1-2.4-9.9-2.2-16.4 1-12.4 6.2-22.4 21.2-22.4 33.5s10 17.3 22.4 11.2c7.3-3.7 13.8-10.4 17.9-17.9.6-1.2.6-2.6-.1-3.8-1.4-2.2-2.2-5-2.2-8.5z" opacity=".29"/>
      <path d="m140.2 170.8c-1.4-2.2-2.1-5.1-2.1-8.5 0-3.5.8-7.3 2.3-10.9.7-1.7.1-3.7-1.5-4.6-1.4-.8-2.9-1.3-4.6-1.5.5.9.5 2.1.1 3.1-1.4 3.7-2.3 7.4-2.3 10.9 0 3.4.8 6.3 2.1 8.5.7 1.1.8 2.6.1 3.8-4.1 7.5-10.6 14.3-17.9 17.9-4.6 2.3-8.9 3.1-12.5 2.4 4 3.9 10.8 4.4 18.5.6 7.3-3.7 13.8-10.4 17.9-17.9.6-1.2.6-2.6-.1-3.8z" opacity=".2"/>
      <path d="m108 177.6c0-8.7 5.2-18.8 12.6-25.9-9.7 4.9-17.6 16.7-17.6 26.4 0 2.5.5 4.5 1.4 6.2 1.3 2.4 5 .8 4.2-1.8-.4-1.4-.6-3.1-.6-4.9z" fill="#fff" opacity=".2"/>
      <path d="m78 125-2-1v110l2 1z" opacity=".2"/>
    </g>
    <g transform="matrix(.625 0 0 .625 136 290)">
      <path d="m0 80v120l80 40 80-40v-120z" fill="#e5e5e5"/>
      <path d="m80 120v120l80-40v-120z" fill="#cc291f"/>
      <path d="m0 80v6l80 40 80-40v-6l-80-40z" fill="#999"/>
      <path d="m80 240-80-40v-120l80 40z" opacity=".11"/>
      <path d="m80 120v120l80-40v-120z" opacity=".29"/>
      <path d="m80 240 80-40v-4l-80 40z" opacity=".2"/>
      <path d="m80 240 2-1v-114l-2 1z" opacity=".2"/>
      <path d="m158 201 2-1v-114l-2 1z" opacity=".2"/>
    </g>
  </g>
  <a class="svg-link" href="https://apps.apple.com/us/app/screw-sorter-2000/id963601730" target="_blank">
    <g class="svg-item toolbox" transform="matrix(-.525 0 0 .525 716 100)">
      <path d="m0 80v40l80 40 80-40v-40l-80-40z" fill="#cc291f"/>
      <path d="m80 160-80-40v-40l80 40z" opacity=".29"/>
      <path d="m88 122v28l64-32v-28zm62-5.2-60 30v-23.5l60-30z" opacity=".4"/>
      <path d="m112 116.9 16-8v4l-16 8z" opacity=".4"/>
      <path d="m80 120v40l80-40v-40z" opacity=".11"/>
    </g>
    <g fill="#fff" transform="matrix(.87499161 -.4374958 .87499161 .4374958 642.000269 138)">
      <path d="m22.2 19.3 7.7 7.7c.7.7.7 1.9 0 2.7l-1.4 1.3c-.7.7-1.9.7-2.7 0l-7.7-7.7z"/>
      <path d="m26.4 11.3-1.5-1.5c-.7-.7-.7-1.8 0-2.5l2.9-2.9c-1.9-.5-4 0-5.5 1.5s-2 3.6-1.5 5.5l-15.8 15.6c-.7.7-.7 1.8 0 2.5l1.5 1.5c.7.7 1.8.7 2.5 0l15.7-15.7c1.9.5 4 0 5.5-1.5s2-3.6 1.5-5.5l-2.9 2.9c-.6.8-1.7.8-2.4.1z"/>
      <path d="m18.2 1.8c-2.5-.6-7.3.6-10.1 3.4l-4 4c.4.4.4 1 0 1.3l-.7.7c-.4.4-1 .4-1.3 0l-2 2 4.7 4.7 2-2c-.4-.4-.4-1 0-1.3l.7-.7c.4-.4 1-.4 1.3 0l.7-.7 4 4 2.7-2.7-4-4 .7-.7-.1-.1c-2.4-2.2 1.7-6.4 5.4-7.9z"/>
    </g>
  </a>
  <a class="svg-link" href="https://catalyze.theater/house/basement?clipboard=checked">
    <g class="clipboard svg-item" transform="translate(200,270)">
      <path xmlns="http://www.w3.org/2000/svg" d="m60 8-60 30v2l40 20 60-30v-2z" fill="#39c"></path>
      <path xmlns="http://www.w3.org/2000/svg" d="m40 58-40-20v2l40 20z" opacity=".29"></path>
      <path xmlns="http://www.w3.org/2000/svg" d="m40 58v2l60-30v-2z" opacity=".11"></path>
      <path xmlns="http://www.w3.org/2000/svg" d="m4 38 36 18 56-28-36-18z" opacity=".2"></path>
      <path xmlns="http://www.w3.org/2000/svg" d="m4 38 36 18 56-29-36-17z" fill="#e5e5e5"></path>
      <path xmlns="http://www.w3.org/2000/svg" d="m4 37 36 18 53-28-35-17z" opacity=".2"></path>
      <path xmlns="http://www.w3.org/2000/svg" d="m4 37 36 18 53-29-35-16z" fill="#e5e5e5"></path>
      <path xmlns="http://www.w3.org/2000/svg" d="m89 22-2.5-2.5c-.3-.3-.5-.8-.5-1.2v-.2c0-.7-.4-1.3-1-1.6l-3.8-1.9c-.8-.4-1.7-.6-2.6-.6h-2.5c-.1 0-.2 0-.3 0l-5-.8c-.5-.1-1.1 0-1.6.2l-2.1 1.1c-.2.1-.3.3-.3.4v.7c0 .2.1.4.3.5l17.9 8.9c.7.3 1.4.3 2.1 0l1.7-.9c.3-.2.5-.5.5-.8 0-.1 0-.5 0-.6 0-.3-.1-.5-.3-.7zm-6-3.5-.5.2c-.3.2-.7.2-1.1 0l-2.4-1.2c-.1-.1-.2-.1-.2-.3.1-.1.1-.2.2-.3l.5-.2c.3-.2.7-.2 1.1 0l2.4 1.3c.1.1.2.1.2.3 0 .1-.1.1-.2.2z" fill="#999"></path>
      <path xmlns="http://www.w3.org/2000/svg" d="m89.3 22.7c0 .4-.2.7-.5.9l-1.8.9c-.7.3-1.4.3-2.1 0l-17.8-8.9c-.2-.1-.3-.3-.3-.5v.5c0 .2.1.4.3.5l17.9 8.9c.7.3 1.4.3 2.1 0l1.7-.9c.3-.2.5-.5.5-.8 0-.1 0-.5 0-.6z" opacity=".2"></path>
      <path xmlns="http://www.w3.org/2000/svg" d="m83 17.5-2.5-1.2c-.3-.2-.7-.2-1.1 0l-.4.2c-.3.2-.4.6-.2.8 0 0 0 0 0-.1.1-.1.1-.2.2-.3l.5-.2c.3-.2.7-.2 1.1 0l2.4 1.3c.1.1.2.1.2.3v.1c.2-.3.1-.7-.2-.9z" opacity=".2"></path>
    </g>
  </a>
  <a class="svg-link" href="https://catalyze.theater/house/basement?diary=peeked">
    <g class="diary svg-item" transform="translate(150, 320)">
      <g>
        <path d="m38 5-38 19v1l30 15 16-8h2l4-2 2-2 14-7v-1z" fill="#cc291f"></path>
        <path d="m30 40-30-15v-1l30 15z" opacity=".11"></path>
        <path d="m30 39v1l16-8h2l4-2 2-2 14-7v-1l-16 8-2 2h-2z" opacity=".29"></path>
        <path d="m2 21v3l28 14 36-18v-3l-28-14h-.2c-6.3.7-12.3 4.5-16.8 9l-1 1c-6.5.6-12.5 2.5-17.1 7.1z" fill="#e5e5e5"></path>
        <path d="m30 38-28-14v-3l28 14z" opacity=".11"></path>
        <path d="m30 35v3l36-18v-3h-.2c-6.3.7-12.3 4.5-16.8 9l-1 1c-6.5.6-12.5 2.5-17.1 7.1z" opacity=".29"></path>
        <path d="m20 13c-6.5.6-12.5 2.5-17.1 7.1l-.9.9 28 14 .9-.9c4.6-4.6 10.6-6.5 17.1-7.1z" opacity=".05"></path>
      </g>
    </g>
  </a>
  <g transform="matrix(2 0 0 2 672 24)">
    <g>
      <path d="m22.8 8v64l1.2.6 1.2-.6v-64l-1.2-.6z" fill="#36c"/>
      <path d="m24 72.6-1.2-.6v-64l1.2.6z" opacity=".11"/>
      <path d="m24 72.6 1.2-.6v-64l-1.2.6z" opacity=".29"/>
    </g>
    <g>
      <path d="m54.8 24v64l1.2.6 1.2-.6v-64l-1.2-.6z" fill="#36c"/>
      <path d="m56 88.6-1.2-.6v-64l1.2.6z" opacity=".11"/>
      <path d="m56 88.6 1.2-.6v-64l-1.2.6z" opacity=".29"/>
    </g>
    <g>
      <path d="m16 75.6v.6l32 16 8-4v-.6l-32-16z" fill="#999"/>
      <path d="m48 92.2-32-16v-.6l32 16z" opacity=".11"/>
      <path d="m48 92.2 8-4v-.6l-8 4z" opacity=".29"/>
    </g>
    <g>
      <path d="m16 67.6v.6l32 16 8-4v-.6l-32-16z" fill="#999"/>
      <path d="m48 84.2-32-16v-.6l32 16z" opacity=".11"/>
      <path d="m48 84.2 8-4v-.6l-8 4z" opacity=".29"/>
    </g>
    <g>
      <path d="m16 59.6v.6l32 16 8-4v-.6l-32-16z" fill="#999"/>
      <path d="m48 76.2-32-16v-.6l32 16z" opacity=".11"/>
      <path d="m48 76.2 8-4v-.6l-8 4z" opacity=".29"/>
    </g>
    <g>
      <path d="m16 51.6v.6l32 16 8-4v-.6l-32-16z" fill="#999"/>
      <path d="m48 68.2-32-16v-.6l32 16z" opacity=".11"/>
      <path d="m48 68.2 8-4v-.6l-8 4z" opacity=".29"/>
    </g>
    <g>
      <path d="m16 43.6v.6l32 16 8-4v-.6l-32-16z" fill="#999"/>
      <path d="m48 60.2-32-16v-.6l32 16z" opacity=".11"/>
      <path d="m48 60.2 8-4v-.6l-8 4z" opacity=".29"/>
    </g>
    <g>
      <path d="m16 35.6v.6l32 16 8-4v-.6l-32-16z" fill="#999"/>
      <path d="m48 52.2-32-16v-.6l32 16z" opacity=".11"/>
      <path d="m48 52.2 8-4v-.6l-8 4z" opacity=".29"/>
    </g>
    <g>
      <path d="m17.1 18.9 6.9-9.3v-.6l-.6-.3-6.3 8.7z" fill="#36c"/>
      <path d="m17.1 18.9 6.9-9.3v-.6l-6.9 9.3z" opacity=".29"/>
    </g>
    <g>
      <path d="m16 27.6v.6l32 16 8-4v-.6l-32-16z" fill="#999"/>
      <path d="m48 44.2-32-16v-.6l32 16z" opacity=".11"/>
      <path d="m48 44.2 8-4v-.6l-8 4z" opacity=".29"/>
    </g>
    <g>
      <path d="m16 19.6v.6l32 16 8-4v-.6l-32-16z" fill="#999"/>
      <path d="m48 36.2-32-16v-.6l32 16z" opacity=".11"/>
      <path d="m48 36.2 8-4v-.6l-8 4z" opacity=".29"/>
    </g>
    <g>
      <path d="m49.1 34.9 6.9-9.3v-.6l-.6-.3-6.3 8.7z" fill="#36c"/>
      <path d="m49.1 34.9 6.9-9.3v-.6l-6.9 9.3z" opacity=".29"/>
    </g>
  </g>
  <g transform="matrix(2 0 0 2 672 24)">
    <g>
      <path d="m14.8 12v64l1.2.6 1.2-.6v-64l-1.2-.6z" fill="#36c"/>
      <path d="m16 76.6-1.2-.6v-64l1.2.6z" opacity=".11"/>
      <path d="m16 76.6 1.2-.6v-64l-1.2.6z" opacity=".29"/>
    </g>
    <g>
      <path d="m9.1 70.9 6.9-9.3v-.6l-.6-.3-6.3 8.7z" fill="#36c"/>
      <path d="m9.1 70.9 6.9-9.3v-.6l-6.9 9.3z" opacity=".29"/>
    </g>
    <g>
      <path d="m9.1 78.9 6.9-9.3v-.6l-.6-.3-6.3 8.7z" fill="#36c"/>
      <path d="m9.1 78.9 6.9-9.3v-.6l-6.9 9.3z" opacity=".29"/>
    </g>
    <g>
      <path d="m9.1 63 6.9-9.3v-.6l-.6-.3-6.3 8.7z" fill="#36c"/>
      <path d="m9.1 63 6.9-9.3v-.6l-6.9 9.3z" opacity=".29"/>
    </g>
    <g>
      <path d="m46.8 28v64l1.2.6 1.2-.6v-64l-1.2-.6z" fill="#36c"/>
      <path d="m48 92.6-1.2-.6v-64l1.2.6z" opacity=".11"/>
      <path d="m48 92.6 1.2-.6v-64l-1.2.6z" opacity=".29"/>
    </g>
    <g>
      <path d="m6.8 16v64l1.2.6 1.2-.6v-64l-1.2-.6z" fill="#36c"/>
      <path d="m8 80.6-1.2-.6v-64l1.2.6z" opacity=".11"/>
      <path d="m8 80.6 1.2-.6v-64l-1.2.6z" opacity=".29"/>
    </g>
    <g>
      <path d="m8 79.6v.6l32 16 8-4v-.6l-32-16z" fill="#999"/>
      <path d="m40 96.2-32-16v-.6l32 16z" opacity=".11"/>
      <path d="m40 96.2 8-4v-.6l-8 4z" opacity=".29"/>
    </g>
    <g>
      <path d="m8 71.6v.6l32 16 8-4v-.6l-32-16z" fill="#999"/>
      <path d="m40 88.2-32-16v-.6l32 16z" opacity=".11"/>
      <path d="m40 88.2 8-4v-.6l-8 4z" opacity=".29"/>
    </g>
    <g>
      <path d="m41.1 86.9 6.9-9.3v-.6l-.6-.3-6.3 8.7z" fill="#36c"/>
      <path d="m41.1 86.9 6.9-9.3v-.6l-6.9 9.3z" opacity=".29"/>
    </g>
    <g>
      <path d="m41.1 94.9 6.9-9.3v-.6l-.6-.3-6.3 8.7z" fill="#36c"/>
      <path d="m41.1 94.9 6.9-9.3v-.6l-6.9 9.3z" opacity=".29"/>
    </g>
    <g>
      <path d="m8 63.6v.6l32 16 8-4v-.6l-32-16z" fill="#999"/>
      <path d="m40 80.2-32-16v-.6l32 16z" opacity=".11"/>
      <path d="m40 80.2 8-4v-.6l-8 4z" opacity=".29"/>
    </g>
    <g>
      <path d="m41.1 79 6.9-9.3v-.6l-.6-.3-6.3 8.7z" fill="#36c"/>
      <path d="m41.1 79 6.9-9.3v-.6l-6.9 9.3z" opacity=".29"/>
    </g>
    <g>
      <path d="m9.1 46.9 6.9-9.3v-.6l-.6-.3-6.3 8.7z" fill="#36c"/>
      <path d="m9.1 46.9 6.9-9.3v-.6l-6.9 9.3z" opacity=".29"/>
    </g>
    <g>
      <path d="m9.1 54.9 6.9-9.3v-.6l-.6-.3-6.3 8.7z" fill="#36c"/>
      <path d="m9.1 54.9 6.9-9.3v-.6l-6.9 9.3z" opacity=".29"/>
    </g>
    <g>
      <path d="m9.1 39 6.9-9.3v-.6l-.6-.3-6.3 8.7z" fill="#36c"/>
      <path d="m9.1 39 6.9-9.3v-.6l-6.9 9.3z" opacity=".29"/>
    </g>
    <g>
      <path d="m8 55.6v.6l32 16 8-4v-.6l-32-16z" fill="#999"/>
      <path d="m40 72.2-32-16v-.6l32 16z" opacity=".11"/>
      <path d="m40 72.2 8-4v-.6l-8 4z" opacity=".29"/>
    </g>
    <g>
      <path d="m8 47.6v.6l32 16 8-4v-.6l-32-16z" fill="#999"/>
      <path d="m40 64.2-32-16v-.6l32 16z" opacity=".11"/>
      <path d="m40 64.2 8-4v-.6l-8 4z" opacity=".29"/>
    </g>
    <g>
      <path d="m41.1 62.9 6.9-9.3v-.6l-.6-.3-6.3 8.7z" fill="#36c"/>
      <path d="m41.1 62.9 6.9-9.3v-.6l-6.9 9.3z" opacity=".29"/>
    </g>
    <g>
      <path d="m41.1 70.9 6.9-9.3v-.6l-.6-.3-6.3 8.7z" fill="#36c"/>
      <path d="m41.1 70.9 6.9-9.3v-.6l-6.9 9.3z" opacity=".29"/>
    </g>
    <g>
      <path d="m8 39.6v.6l32 16 8-4v-.6l-32-16z" fill="#999"/>
      <path d="m40 56.2-32-16v-.6l32 16z" opacity=".11"/>
      <path d="m40 56.2 8-4v-.6l-8 4z" opacity=".29"/>
    </g>
    <g>
      <path d="m41.1 55 6.9-9.3v-.6l-.6-.3-6.3 8.7z" fill="#36c"/>
      <path d="m41.1 55 6.9-9.3v-.6l-6.9 9.3z" opacity=".29"/>
    </g>
    <g>
      <path d="m9.1 22.9 6.9-9.3v-.6l-.6-.3-6.3 8.7z" fill="#36c"/>
      <path d="m9.1 22.9 6.9-9.3v-.6l-6.9 9.3z" opacity=".29"/>
    </g>
    <g>
      <path d="m9.1 30.9 6.9-9.3v-.6l-.6-.3-6.3 8.7z" fill="#36c"/>
      <path d="m9.1 30.9 6.9-9.3v-.6l-6.9 9.3z" opacity=".29"/>
    </g>
    <g>
      <path d="m8 31.6v.6l32 16 8-4v-.6l-32-16z" fill="#999"/>
      <path d="m40 48.2-32-16v-.6l32 16z" opacity=".11"/>
      <path d="m40 48.2 8-4v-.6l-8 4z" opacity=".29"/>
    </g>
    <g>
      <path d="m8 23.6v.6l32 16 8-4v-.6l-32-16z" fill="#999"/>
      <path d="m40 40.2-32-16v-.6l32 16z" opacity=".11"/>
      <path d="m40 40.2 8-4v-.6l-8 4z" opacity=".29"/>
    </g>
    <g>
      <path d="m41.1 38.9 6.9-9.3v-.6l-.6-.3-6.3 8.7z" fill="#36c"/>
      <path d="m41.1 38.9 6.9-9.3v-.6l-6.9 9.3z" opacity=".29"/>
    </g>
    <g>
      <path d="m41.1 46.9 6.9-9.3v-.6l-.6-.3-6.3 8.7z" fill="#36c"/>
      <path d="m41.1 46.9 6.9-9.3v-.6l-6.9 9.3z" opacity=".29"/>
    </g>
    <g>
      <path d="m38.8 32v64l1.2.6 1.2-.6v-64l-1.2-.6z" fill="#36c"/>
      <path d="m40 96.6-1.2-.6v-64l1.2.6z" opacity=".11"/>
      <path d="m40 96.6 1.2-.6v-64l-1.2.6z" opacity=".29"/>
    </g>
  </g>
  <g transform="matrix(2 0 0 2 672 24)">
    <g>
      <path d="m86.8 40v64l1.2.6 1.2-.6v-64l-1.2-.6z" fill="#36c"/>
      <path d="m88 104.6-1.2-.6v-64l1.2.6z" opacity=".11"/>
      <path d="m88 104.6 1.2-.6v-64l-1.2.6z" opacity=".29"/>
    </g>
    <g>
      <path d="m48 91.6v.6l32 16 8-4v-.6l-32-16z" fill="#999"/>
      <path d="m80 108.2-32-16v-.6l32 16z" opacity=".11"/>
      <path d="m80 108.2 8-4v-.6l-8 4z" opacity=".29"/>
    </g>
    <g>
      <path d="m48 83.6v.6l32 16 8-4v-.6l-32-16z" fill="#999"/>
      <path d="m80 100.2-32-16v-.6l32 16z" opacity=".11"/>
      <path d="m80 100.2 8-4v-.6l-8 4z" opacity=".29"/>
    </g>
    <g>
      <path d="m81.1 98.9 6.9-9.3v-.6l-.6-.3-6.3 8.7z" fill="#36c"/>
      <path d="m81.1 98.9 6.9-9.3v-.6l-6.9 9.3z" opacity=".29"/>
    </g>
    <g>
      <path d="m81.1 106.9 6.9-9.3v-.6l-.6-.3-6.3 8.7z" fill="#36c"/>
      <path d="m81.1 106.9 6.9-9.3v-.6l-6.9 9.3z" opacity=".29"/>
    </g>
    <g>
      <path d="m48 75.6v.6l32 16 8-4v-.6l-32-16z" fill="#999"/>
      <path d="m80 92.2-32-16v-.6l32 16z" opacity=".11"/>
      <path d="m80 92.2 8-4v-.6l-8 4z" opacity=".29"/>
    </g>
    <g>
      <path d="m81.1 91 6.9-9.3v-.6l-.6-.3-6.3 8.7z" fill="#36c"/>
      <path d="m81.1 91 6.9-9.3v-.6l-6.9 9.3z" opacity=".29"/>
    </g>
    <g>
      <path d="m48 67.6v.6l32 16 8-4v-.6l-32-16z" fill="#999"/>
      <path d="m80 84.2-32-16v-.6l32 16z" opacity=".11"/>
      <path d="m80 84.2 8-4v-.6l-8 4z" opacity=".29"/>
    </g>
    <g>
      <path d="m48 59.6v.6l32 16 8-4v-.6l-32-16z" fill="#999"/>
      <path d="m80 76.2-32-16v-.6l32 16z" opacity=".11"/>
      <path d="m80 76.2 8-4v-.6l-8 4z" opacity=".29"/>
    </g>
    <g>
      <path d="m81.1 74.9 6.9-9.3v-.6l-.6-.3-6.3 8.7z" fill="#36c"/>
      <path d="m81.1 74.9 6.9-9.3v-.6l-6.9 9.3z" opacity=".29"/>
    </g>
    <g>
      <path d="m81.1 82.9 6.9-9.3v-.6l-.6-.3-6.3 8.7z" fill="#36c"/>
      <path d="m81.1 82.9 6.9-9.3v-.6l-6.9 9.3z" opacity=".29"/>
    </g>
    <g>
      <path d="m48 51.6v.6l32 16 8-4v-.6l-32-16z" fill="#999"/>
      <path d="m80 68.2-32-16v-.6l32 16z" opacity=".11"/>
      <path d="m80 68.2 8-4v-.6l-8 4z" opacity=".29"/>
    </g>
    <g>
      <path d="m81.1 67 6.9-9.3v-.6l-.6-.3-6.3 8.7z" fill="#36c"/>
      <path d="m81.1 67 6.9-9.3v-.6l-6.9 9.3z" opacity=".29"/>
    </g>
    <g>
      <path d="m48 43.6v.6l32 16 8-4v-.6l-32-16z" fill="#999"/>
      <path d="m80 60.2-32-16v-.6l32 16z" opacity=".11"/>
      <path d="m80 60.2 8-4v-.6l-8 4z" opacity=".29"/>
    </g>
    <g>
      <path d="m48 35.6v.6l32 16 8-4v-.6l-32-16z" fill="#999"/>
      <path d="m80 52.2-32-16v-.6l32 16z" opacity=".11"/>
      <path d="m80 52.2 8-4v-.6l-8 4z" opacity=".29"/>
    </g>
    <g>
      <path d="m81.1 50.9 6.9-9.3v-.6l-.6-.3-6.3 8.7z" fill="#36c"/>
      <path d="m81.1 50.9 6.9-9.3v-.6l-6.9 9.3z" opacity=".29"/>
    </g>
    <g>
      <path d="m81.1 58.9 6.9-9.3v-.6l-.6-.3-6.3 8.7z" fill="#36c"/>
      <path d="m81.1 58.9 6.9-9.3v-.6l-6.9 9.3z" opacity=".29"/>
    </g>
  </g>
  <g transform="matrix(2 0 0 2 672 24)">
    <g>
      <path d="m78.8 44v64l1.2.6 1.2-.6v-64l-1.2-.6z" fill="#36c"/>
      <path d="m80 108.6-1.2-.6v-64l1.2.6z" opacity=".11"/>
      <path d="m80 108.6 1.2-.6v-64l-1.2.6z" opacity=".29"/>
    </g>
    <g>
      <path d="m40 95.6v.6l32 16 8-4v-.6l-32-16z" fill="#999"/>
      <path d="m72 112.2-32-16v-.6l32 16z" opacity=".11"/>
      <path d="m72 112.2 8-4v-.6l-8 4z" opacity=".29"/>
    </g>
    <g>
      <path d="m40 87.6v.6l32 16 8-4v-.6l-32-16z" fill="#999"/>
      <path d="m72 104.2-32-16v-.6l32 16z" opacity=".11"/>
      <path d="m72 104.2 8-4v-.6l-8 4z" opacity=".29"/>
    </g>
    <g>
      <path d="m73.1 102.9 6.9-9.3v-.6l-.6-.3-6.3 8.7z" fill="#36c"/>
      <path d="m73.1 102.9 6.9-9.3v-.6l-6.9 9.3z" opacity=".29"/>
    </g>
    <g>
      <path d="m73.1 110.9 6.9-9.3v-.6l-.6-.3-6.3 8.7z" fill="#36c"/>
      <path d="m73.1 110.9 6.9-9.3v-.6l-6.9 9.3z" opacity=".29"/>
    </g>
    <g>
      <path d="m40 79.6v.6l32 16 8-4v-.6l-32-16z" fill="#999"/>
      <path d="m72 96.2-32-16v-.6l32 16z" opacity=".11"/>
      <path d="m72 96.2 8-4v-.6l-8 4z" opacity=".29"/>
    </g>
    <g>
      <path d="m73.1 95 6.9-9.3v-.6l-.6-.3-6.3 8.7z" fill="#36c"/>
      <path d="m73.1 95 6.9-9.3v-.6l-6.9 9.3z" opacity=".29"/>
    </g>
    <g>
      <path d="m40 71.6v.6l32 16 8-4v-.6l-32-16z" fill="#999"/>
      <path d="m72 88.2-32-16v-.6l32 16z" opacity=".11"/>
      <path d="m72 88.2 8-4v-.6l-8 4z" opacity=".29"/>
    </g>
    <g>
      <path d="m40 63.6v.6l32 16 8-4v-.6l-32-16z" fill="#999"/>
      <path d="m72 80.2-32-16v-.6l32 16z" opacity=".11"/>
      <path d="m72 80.2 8-4v-.6l-8 4z" opacity=".29"/>
    </g>
    <g>
      <path d="m73.1 78.9 6.9-9.3v-.6l-.6-.3-6.3 8.7z" fill="#36c"/>
      <path d="m73.1 78.9 6.9-9.3v-.6l-6.9 9.3z" opacity=".29"/>
    </g>
    <g>
      <path d="m73.1 86.9 6.9-9.3v-.6l-.6-.3-6.3 8.7z" fill="#36c"/>
      <path d="m73.1 86.9 6.9-9.3v-.6l-6.9 9.3z" opacity=".29"/>
    </g>
    <g>
      <path d="m40 55.6v.6l32 16 8-4v-.6l-32-16z" fill="#999"/>
      <path d="m72 72.2-32-16v-.6l32 16z" opacity=".11"/>
      <path d="m72 72.2 8-4v-.6l-8 4z" opacity=".29"/>
    </g>
    <g>
      <path d="m73.1 71 6.9-9.3v-.6l-.6-.3-6.3 8.7z" fill="#36c"/>
      <path d="m73.1 71 6.9-9.3v-.6l-6.9 9.3z" opacity=".29"/>
    </g>
    <g>
      <path d="m40 47.6v.6l32 16 8-4v-.6l-32-16z" fill="#999"/>
      <path d="m72 64.2-32-16v-.6l32 16z" opacity=".11"/>
      <path d="m72 64.2 8-4v-.6l-8 4z" opacity=".29"/>
    </g>
    <g>
      <path d="m40 39.6v.6l32 16 8-4v-.6l-32-16z" fill="#999"/>
      <path d="m72 56.2-32-16v-.6l32 16z" opacity=".11"/>
      <path d="m72 56.2 8-4v-.6l-8 4z" opacity=".29"/>
    </g>
    <g>
      <path d="m73.1 54.9 6.9-9.3v-.6l-.6-.3-6.3 8.7z" fill="#36c"/>
      <path d="m73.1 54.9 6.9-9.3v-.6l-6.9 9.3z" opacity=".29"/>
    </g>
    <g>
      <path d="m73.1 62.9 6.9-9.3v-.6l-.6-.3-6.3 8.7z" fill="#36c"/>
      <path d="m73.1 62.9 6.9-9.3v-.6l-6.9 9.3z" opacity=".29"/>
    </g>
    <g>
      <path d="m70.8 48v64l1.2.6 1.2-.6v-64l-1.2-.6z" fill="#36c"/>
      <path d="m72 112.6-1.2-.6v-64l1.2.6z" opacity=".11"/>
      <path d="m72 112.6 1.2-.6v-64l-1.2.6z" opacity=".29"/>
    </g>
  </g>
  <g transform="matrix(2 0 0 2 856 120)">
    <g>
      <path d="m22.8 8v64l1.2.6 1.2-.6v-64l-1.2-.6z" fill="#36c"/>
      <path d="m24 72.6-1.2-.6v-64l1.2.6z" opacity=".11"/>
      <path d="m24 72.6 1.2-.6v-64l-1.2.6z" opacity=".29"/>
    </g>
    <g>
      <path d="m54.8 24v64l1.2.6 1.2-.6v-64l-1.2-.6z" fill="#36c"/>
      <path d="m56 88.6-1.2-.6v-64l1.2.6z" opacity=".11"/>
      <path d="m56 88.6 1.2-.6v-64l-1.2.6z" opacity=".29"/>
    </g>
    <g>
      <path d="m16 75.6v.6l32 16 8-4v-.6l-32-16z" fill="#999"/>
      <path d="m48 92.2-32-16v-.6l32 16z" opacity=".11"/>
      <path d="m48 92.2 8-4v-.6l-8 4z" opacity=".29"/>
    </g>
    <g>
      <path d="m16 67.6v.6l32 16 8-4v-.6l-32-16z" fill="#999"/>
      <path d="m48 84.2-32-16v-.6l32 16z" opacity=".11"/>
      <path d="m48 84.2 8-4v-.6l-8 4z" opacity=".29"/>
    </g>
    <g>
      <path d="m16 59.6v.6l32 16 8-4v-.6l-32-16z" fill="#999"/>
      <path d="m48 76.2-32-16v-.6l32 16z" opacity=".11"/>
      <path d="m48 76.2 8-4v-.6l-8 4z" opacity=".29"/>
    </g>
    <g>
      <path d="m16 51.6v.6l32 16 8-4v-.6l-32-16z" fill="#999"/>
      <path d="m48 68.2-32-16v-.6l32 16z" opacity=".11"/>
      <path d="m48 68.2 8-4v-.6l-8 4z" opacity=".29"/>
    </g>
    <g>
      <path d="m16 43.6v.6l32 16 8-4v-.6l-32-16z" fill="#999"/>
      <path d="m48 60.2-32-16v-.6l32 16z" opacity=".11"/>
      <path d="m48 60.2 8-4v-.6l-8 4z" opacity=".29"/>
    </g>
    <g>
      <path d="m16 35.6v.6l32 16 8-4v-.6l-32-16z" fill="#999"/>
      <path d="m48 52.2-32-16v-.6l32 16z" opacity=".11"/>
      <path d="m48 52.2 8-4v-.6l-8 4z" opacity=".29"/>
    </g>
    <g>
      <path d="m17.1 18.9 6.9-9.3v-.6l-.6-.3-6.3 8.7z" fill="#36c"/>
      <path d="m17.1 18.9 6.9-9.3v-.6l-6.9 9.3z" opacity=".29"/>
    </g>
    <g>
      <path d="m16 27.6v.6l32 16 8-4v-.6l-32-16z" fill="#999"/>
      <path d="m48 44.2-32-16v-.6l32 16z" opacity=".11"/>
      <path d="m48 44.2 8-4v-.6l-8 4z" opacity=".29"/>
    </g>
    <g>
      <path d="m16 19.6v.6l32 16 8-4v-.6l-32-16z" fill="#999"/>
      <path d="m48 36.2-32-16v-.6l32 16z" opacity=".11"/>
      <path d="m48 36.2 8-4v-.6l-8 4z" opacity=".29"/>
    </g>
    <g>
      <path d="m49.1 34.9 6.9-9.3v-.6l-.6-.3-6.3 8.7z" fill="#36c"/>
      <path d="m49.1 34.9 6.9-9.3v-.6l-6.9 9.3z" opacity=".29"/>
    </g>
  </g>
  <g transform="matrix(2 0 0 2 856 120)">
    <g>
      <path d="m14.8 12v64l1.2.6 1.2-.6v-64l-1.2-.6z" fill="#36c"/>
      <path d="m16 76.6-1.2-.6v-64l1.2.6z" opacity=".11"/>
      <path d="m16 76.6 1.2-.6v-64l-1.2.6z" opacity=".29"/>
    </g>
    <g>
      <path d="m9.1 70.9 6.9-9.3v-.6l-.6-.3-6.3 8.7z" fill="#36c"/>
      <path d="m9.1 70.9 6.9-9.3v-.6l-6.9 9.3z" opacity=".29"/>
    </g>
    <g>
      <path d="m9.1 78.9 6.9-9.3v-.6l-.6-.3-6.3 8.7z" fill="#36c"/>
      <path d="m9.1 78.9 6.9-9.3v-.6l-6.9 9.3z" opacity=".29"/>
    </g>
    <g>
      <path d="m9.1 63 6.9-9.3v-.6l-.6-.3-6.3 8.7z" fill="#36c"/>
      <path d="m9.1 63 6.9-9.3v-.6l-6.9 9.3z" opacity=".29"/>
    </g>
    <g>
      <path d="m46.8 28v64l1.2.6 1.2-.6v-64l-1.2-.6z" fill="#36c"/>
      <path d="m48 92.6-1.2-.6v-64l1.2.6z" opacity=".11"/>
      <path d="m48 92.6 1.2-.6v-64l-1.2.6z" opacity=".29"/>
    </g>
    <g>
      <path d="m6.8 16v64l1.2.6 1.2-.6v-64l-1.2-.6z" fill="#36c"/>
      <path d="m8 80.6-1.2-.6v-64l1.2.6z" opacity=".11"/>
      <path d="m8 80.6 1.2-.6v-64l-1.2.6z" opacity=".29"/>
    </g>
    <g>
      <path d="m8 79.6v.6l32 16 8-4v-.6l-32-16z" fill="#999"/>
      <path d="m40 96.2-32-16v-.6l32 16z" opacity=".11"/>
      <path d="m40 96.2 8-4v-.6l-8 4z" opacity=".29"/>
    </g>
    <g>
      <path d="m8 71.6v.6l32 16 8-4v-.6l-32-16z" fill="#999"/>
      <path d="m40 88.2-32-16v-.6l32 16z" opacity=".11"/>
      <path d="m40 88.2 8-4v-.6l-8 4z" opacity=".29"/>
    </g>
    <g>
      <path d="m41.1 86.9 6.9-9.3v-.6l-.6-.3-6.3 8.7z" fill="#36c"/>
      <path d="m41.1 86.9 6.9-9.3v-.6l-6.9 9.3z" opacity=".29"/>
    </g>
    <g>
      <path d="m41.1 94.9 6.9-9.3v-.6l-.6-.3-6.3 8.7z" fill="#36c"/>
      <path d="m41.1 94.9 6.9-9.3v-.6l-6.9 9.3z" opacity=".29"/>
    </g>
    <g>
      <path d="m8 63.6v.6l32 16 8-4v-.6l-32-16z" fill="#999"/>
      <path d="m40 80.2-32-16v-.6l32 16z" opacity=".11"/>
      <path d="m40 80.2 8-4v-.6l-8 4z" opacity=".29"/>
    </g>
    <g>
      <path d="m41.1 79 6.9-9.3v-.6l-.6-.3-6.3 8.7z" fill="#36c"/>
      <path d="m41.1 79 6.9-9.3v-.6l-6.9 9.3z" opacity=".29"/>
    </g>
    <g>
      <path d="m9.1 46.9 6.9-9.3v-.6l-.6-.3-6.3 8.7z" fill="#36c"/>
      <path d="m9.1 46.9 6.9-9.3v-.6l-6.9 9.3z" opacity=".29"/>
    </g>
    <g>
      <path d="m9.1 54.9 6.9-9.3v-.6l-.6-.3-6.3 8.7z" fill="#36c"/>
      <path d="m9.1 54.9 6.9-9.3v-.6l-6.9 9.3z" opacity=".29"/>
    </g>
    <g>
      <path d="m9.1 39 6.9-9.3v-.6l-.6-.3-6.3 8.7z" fill="#36c"/>
      <path d="m9.1 39 6.9-9.3v-.6l-6.9 9.3z" opacity=".29"/>
    </g>
    <g>
      <path d="m8 55.6v.6l32 16 8-4v-.6l-32-16z" fill="#999"/>
      <path d="m40 72.2-32-16v-.6l32 16z" opacity=".11"/>
      <path d="m40 72.2 8-4v-.6l-8 4z" opacity=".29"/>
    </g>
    <g>
      <path d="m8 47.6v.6l32 16 8-4v-.6l-32-16z" fill="#999"/>
      <path d="m40 64.2-32-16v-.6l32 16z" opacity=".11"/>
      <path d="m40 64.2 8-4v-.6l-8 4z" opacity=".29"/>
    </g>
    <g>
      <path d="m41.1 62.9 6.9-9.3v-.6l-.6-.3-6.3 8.7z" fill="#36c"/>
      <path d="m41.1 62.9 6.9-9.3v-.6l-6.9 9.3z" opacity=".29"/>
    </g>
    <g>
      <path d="m41.1 70.9 6.9-9.3v-.6l-.6-.3-6.3 8.7z" fill="#36c"/>
      <path d="m41.1 70.9 6.9-9.3v-.6l-6.9 9.3z" opacity=".29"/>
    </g>
    <g>
      <path d="m8 39.6v.6l32 16 8-4v-.6l-32-16z" fill="#999"/>
      <path d="m40 56.2-32-16v-.6l32 16z" opacity=".11"/>
      <path d="m40 56.2 8-4v-.6l-8 4z" opacity=".29"/>
    </g>
    <g>
      <path d="m41.1 55 6.9-9.3v-.6l-.6-.3-6.3 8.7z" fill="#36c"/>
      <path d="m41.1 55 6.9-9.3v-.6l-6.9 9.3z" opacity=".29"/>
    </g>
    <g>
      <path d="m9.1 22.9 6.9-9.3v-.6l-.6-.3-6.3 8.7z" fill="#36c"/>
      <path d="m9.1 22.9 6.9-9.3v-.6l-6.9 9.3z" opacity=".29"/>
    </g>
    <g>
      <path d="m9.1 30.9 6.9-9.3v-.6l-.6-.3-6.3 8.7z" fill="#36c"/>
      <path d="m9.1 30.9 6.9-9.3v-.6l-6.9 9.3z" opacity=".29"/>
    </g>
    <g>
      <path d="m8 31.6v.6l32 16 8-4v-.6l-32-16z" fill="#999"/>
      <path d="m40 48.2-32-16v-.6l32 16z" opacity=".11"/>
      <path d="m40 48.2 8-4v-.6l-8 4z" opacity=".29"/>
    </g>
    <g>
      <path d="m8 23.6v.6l32 16 8-4v-.6l-32-16z" fill="#999"/>
      <path d="m40 40.2-32-16v-.6l32 16z" opacity=".11"/>
      <path d="m40 40.2 8-4v-.6l-8 4z" opacity=".29"/>
    </g>
    <g>
      <path d="m41.1 38.9 6.9-9.3v-.6l-.6-.3-6.3 8.7z" fill="#36c"/>
      <path d="m41.1 38.9 6.9-9.3v-.6l-6.9 9.3z" opacity=".29"/>
    </g>
    <g>
      <path d="m41.1 46.9 6.9-9.3v-.6l-.6-.3-6.3 8.7z" fill="#36c"/>
      <path d="m41.1 46.9 6.9-9.3v-.6l-6.9 9.3z" opacity=".29"/>
    </g>
    <g>
      <path d="m38.8 32v64l1.2.6 1.2-.6v-64l-1.2-.6z" fill="#36c"/>
      <path d="m40 96.6-1.2-.6v-64l1.2.6z" opacity=".11"/>
      <path d="m40 96.6 1.2-.6v-64l-1.2.6z" opacity=".29"/>
    </g>
  </g>
  <g transform="matrix(2 0 0 2 856 120)">
    <g>
      <path d="m86.8 40v64l1.2.6 1.2-.6v-64l-1.2-.6z" fill="#36c"/>
      <path d="m88 104.6-1.2-.6v-64l1.2.6z" opacity=".11"/>
      <path d="m88 104.6 1.2-.6v-64l-1.2.6z" opacity=".29"/>
    </g>
    <g>
      <path d="m48 91.6v.6l32 16 8-4v-.6l-32-16z" fill="#999"/>
      <path d="m80 108.2-32-16v-.6l32 16z" opacity=".11"/>
      <path d="m80 108.2 8-4v-.6l-8 4z" opacity=".29"/>
    </g>
    <g>
      <path d="m48 83.6v.6l32 16 8-4v-.6l-32-16z" fill="#999"/>
      <path d="m80 100.2-32-16v-.6l32 16z" opacity=".11"/>
      <path d="m80 100.2 8-4v-.6l-8 4z" opacity=".29"/>
    </g>
    <g>
      <path d="m81.1 98.9 6.9-9.3v-.6l-.6-.3-6.3 8.7z" fill="#36c"/>
      <path d="m81.1 98.9 6.9-9.3v-.6l-6.9 9.3z" opacity=".29"/>
    </g>
    <g>
      <path d="m81.1 106.9 6.9-9.3v-.6l-.6-.3-6.3 8.7z" fill="#36c"/>
      <path d="m81.1 106.9 6.9-9.3v-.6l-6.9 9.3z" opacity=".29"/>
    </g>
    <g>
      <path d="m48 75.6v.6l32 16 8-4v-.6l-32-16z" fill="#999"/>
      <path d="m80 92.2-32-16v-.6l32 16z" opacity=".11"/>
      <path d="m80 92.2 8-4v-.6l-8 4z" opacity=".29"/>
    </g>
    <g>
      <path d="m81.1 91 6.9-9.3v-.6l-.6-.3-6.3 8.7z" fill="#36c"/>
      <path d="m81.1 91 6.9-9.3v-.6l-6.9 9.3z" opacity=".29"/>
    </g>
    <g>
      <path d="m48 67.6v.6l32 16 8-4v-.6l-32-16z" fill="#999"/>
      <path d="m80 84.2-32-16v-.6l32 16z" opacity=".11"/>
      <path d="m80 84.2 8-4v-.6l-8 4z" opacity=".29"/>
    </g>
    <g>
      <path d="m48 59.6v.6l32 16 8-4v-.6l-32-16z" fill="#999"/>
      <path d="m80 76.2-32-16v-.6l32 16z" opacity=".11"/>
      <path d="m80 76.2 8-4v-.6l-8 4z" opacity=".29"/>
    </g>
    <g>
      <path d="m81.1 74.9 6.9-9.3v-.6l-.6-.3-6.3 8.7z" fill="#36c"/>
      <path d="m81.1 74.9 6.9-9.3v-.6l-6.9 9.3z" opacity=".29"/>
    </g>
    <g>
      <path d="m81.1 82.9 6.9-9.3v-.6l-.6-.3-6.3 8.7z" fill="#36c"/>
      <path d="m81.1 82.9 6.9-9.3v-.6l-6.9 9.3z" opacity=".29"/>
    </g>
    <g>
      <path d="m48 51.6v.6l32 16 8-4v-.6l-32-16z" fill="#999"/>
      <path d="m80 68.2-32-16v-.6l32 16z" opacity=".11"/>
      <path d="m80 68.2 8-4v-.6l-8 4z" opacity=".29"/>
    </g>
    <g>
      <path d="m81.1 67 6.9-9.3v-.6l-.6-.3-6.3 8.7z" fill="#36c"/>
      <path d="m81.1 67 6.9-9.3v-.6l-6.9 9.3z" opacity=".29"/>
    </g>
    <g>
      <path d="m48 43.6v.6l32 16 8-4v-.6l-32-16z" fill="#999"/>
      <path d="m80 60.2-32-16v-.6l32 16z" opacity=".11"/>
      <path d="m80 60.2 8-4v-.6l-8 4z" opacity=".29"/>
    </g>
    <g>
      <path d="m48 35.6v.6l32 16 8-4v-.6l-32-16z" fill="#999"/>
      <path d="m80 52.2-32-16v-.6l32 16z" opacity=".11"/>
      <path d="m80 52.2 8-4v-.6l-8 4z" opacity=".29"/>
    </g>
    <g>
      <path d="m81.1 50.9 6.9-9.3v-.6l-.6-.3-6.3 8.7z" fill="#36c"/>
      <path d="m81.1 50.9 6.9-9.3v-.6l-6.9 9.3z" opacity=".29"/>
    </g>
    <g>
      <path d="m81.1 58.9 6.9-9.3v-.6l-.6-.3-6.3 8.7z" fill="#36c"/>
      <path d="m81.1 58.9 6.9-9.3v-.6l-6.9 9.3z" opacity=".29"/>
    </g>
  </g>
  <g transform="matrix(2 0 0 2 856 120)">
    <g>
      <path d="m78.8 44v64l1.2.6 1.2-.6v-64l-1.2-.6z" fill="#36c"/>
      <path d="m80 108.6-1.2-.6v-64l1.2.6z" opacity=".11"/>
      <path d="m80 108.6 1.2-.6v-64l-1.2.6z" opacity=".29"/>
    </g>
    <g>
      <path d="m40 95.6v.6l32 16 8-4v-.6l-32-16z" fill="#999"/>
      <path d="m72 112.2-32-16v-.6l32 16z" opacity=".11"/>
      <path d="m72 112.2 8-4v-.6l-8 4z" opacity=".29"/>
    </g>
    <g>
      <path d="m40 87.6v.6l32 16 8-4v-.6l-32-16z" fill="#999"/>
      <path d="m72 104.2-32-16v-.6l32 16z" opacity=".11"/>
      <path d="m72 104.2 8-4v-.6l-8 4z" opacity=".29"/>
    </g>
    <g>
      <path d="m73.1 102.9 6.9-9.3v-.6l-.6-.3-6.3 8.7z" fill="#36c"/>
      <path d="m73.1 102.9 6.9-9.3v-.6l-6.9 9.3z" opacity=".29"/>
    </g>
    <g>
      <path d="m73.1 110.9 6.9-9.3v-.6l-.6-.3-6.3 8.7z" fill="#36c"/>
      <path d="m73.1 110.9 6.9-9.3v-.6l-6.9 9.3z" opacity=".29"/>
    </g>
    <g>
      <path d="m40 79.6v.6l32 16 8-4v-.6l-32-16z" fill="#999"/>
      <path d="m72 96.2-32-16v-.6l32 16z" opacity=".11"/>
      <path d="m72 96.2 8-4v-.6l-8 4z" opacity=".29"/>
    </g>
    <g>
      <path d="m73.1 95 6.9-9.3v-.6l-.6-.3-6.3 8.7z" fill="#36c"/>
      <path d="m73.1 95 6.9-9.3v-.6l-6.9 9.3z" opacity=".29"/>
    </g>
    <g>
      <path d="m40 71.6v.6l32 16 8-4v-.6l-32-16z" fill="#999"/>
      <path d="m72 88.2-32-16v-.6l32 16z" opacity=".11"/>
      <path d="m72 88.2 8-4v-.6l-8 4z" opacity=".29"/>
    </g>
    <g>
      <path d="m40 63.6v.6l32 16 8-4v-.6l-32-16z" fill="#999"/>
      <path d="m72 80.2-32-16v-.6l32 16z" opacity=".11"/>
      <path d="m72 80.2 8-4v-.6l-8 4z" opacity=".29"/>
    </g>
    <g>
      <path d="m73.1 78.9 6.9-9.3v-.6l-.6-.3-6.3 8.7z" fill="#36c"/>
      <path d="m73.1 78.9 6.9-9.3v-.6l-6.9 9.3z" opacity=".29"/>
    </g>
    <g>
      <path d="m73.1 86.9 6.9-9.3v-.6l-.6-.3-6.3 8.7z" fill="#36c"/>
      <path d="m73.1 86.9 6.9-9.3v-.6l-6.9 9.3z" opacity=".29"/>
    </g>
    <g>
      <path d="m40 55.6v.6l32 16 8-4v-.6l-32-16z" fill="#999"/>
      <path d="m72 72.2-32-16v-.6l32 16z" opacity=".11"/>
      <path d="m72 72.2 8-4v-.6l-8 4z" opacity=".29"/>
    </g>
    <g>
      <path d="m73.1 71 6.9-9.3v-.6l-.6-.3-6.3 8.7z" fill="#36c"/>
      <path d="m73.1 71 6.9-9.3v-.6l-6.9 9.3z" opacity=".29"/>
    </g>
    <g>
      <path d="m40 47.6v.6l32 16 8-4v-.6l-32-16z" fill="#999"/>
      <path d="m72 64.2-32-16v-.6l32 16z" opacity=".11"/>
      <path d="m72 64.2 8-4v-.6l-8 4z" opacity=".29"/>
    </g>
    <g>
      <path d="m40 39.6v.6l32 16 8-4v-.6l-32-16z" fill="#999"/>
      <path d="m72 56.2-32-16v-.6l32 16z" opacity=".11"/>
      <path d="m72 56.2 8-4v-.6l-8 4z" opacity=".29"/>
    </g>
    <g>
      <path d="m73.1 54.9 6.9-9.3v-.6l-.6-.3-6.3 8.7z" fill="#36c"/>
      <path d="m73.1 54.9 6.9-9.3v-.6l-6.9 9.3z" opacity=".29"/>
    </g>
    <g>
      <path d="m73.1 62.9 6.9-9.3v-.6l-.6-.3-6.3 8.7z" fill="#36c"/>
      <path d="m73.1 62.9 6.9-9.3v-.6l-6.9 9.3z" opacity=".29"/>
    </g>
    <g>
      <path d="m70.8 48v64l1.2.6 1.2-.6v-64l-1.2-.6z" fill="#36c"/>
      <path d="m72 112.6-1.2-.6v-64l1.2.6z" opacity=".11"/>
      <path d="m72 112.6 1.2-.6v-64l-1.2.6z" opacity=".29"/>
    </g>
  </g>
  <a class="svg-link" href="https://catalyze.theater/house/basement/coffeepot">
    <g class="svg-item coffeepot" transform="matrix(.6 0 0 .6 704 44)">
      <path d="m21 12 12-6 4 2v18l-2 1-4-2v-12l-6 3z" fill="#656565"/>
      <path d="m37 8v18l-2 1v-16l-10 5v-2z" opacity=".29"/>
      <path d="m31 13 4-2v16l-4-2z" opacity=".11"/>
      <ellipse cx="20" cy="14" fill="#656565" rx="12" ry="6"/>
      <path d="m35.9 46.2-3.9-32.2h-24l-3.9 32.2c0 .1-.1.8-.1.8v2c0 4.4 7.2 8 16 8s16-3.6 16-8v-1.9c0-.3 0-.6-.1-.9z" fill="#cc291f"/>
      <g fill="#656565">
        <path d="m20 55.1c-8.8 0-16-3.6-16-8v2.9c0 4.4 7.2 8 16 8s16-3.6 16-8v-2.9c0 4.4-7.2 8-16 8z"/>
        <path d="m20 23c6 0 11-2 12.5-4.8l-.5-4.2c0-3.3-5.4-6-12-6s-12 2.7-12 6l-.5 4.2c1.5 2.8 6.5 4.8 12.5 4.8z"/>
        <path d="m21.1 47h-2.1c-1.1 0-1.9-.9-1.9-1.9v-16.2c0-1.1.9-1.9 1.9-1.9h2.1c1.1 0 1.9.9 1.9 1.9v16.1c0 1.1-.9 2-1.9 2z"/>
      </g>
      <path d="m19 29h2v16h-2z" fill="#39c"/>
      <ellipse cx="20" cy="14" fill="#fff" opacity=".2" rx="8" ry="4"/>
      <path d="m35.9 46.2-1.5-12.4-2.4-19.8c0 3.3-5.4 6-12 6s-12-2.7-12-6l-.4 3.5-3.5 28.7c0 .1-.1.8-.1.8v3c0 4.4 7.2 8 16 8s16-3.6 16-8v-2.9c0-.3 0-.6-.1-.9z" opacity=".15"/>
      <path d="m8 14-4 5 4 10 4-11z" fill="#656565"/>
      <path d="m8 29 4-11-8 1z" opacity=".29"/>
      <path d="m8.7 15.3-3 3 5-1z" opacity=".29"/>
    </g>
  </a>
  <g transform="matrix(1.4 0 0 1.4 448 528)">
    <path d="m6 26v2l22 11 32-16v-2l-22-11z" fill="#656565"/>
    <path d="m28 39-22-11v-2l22 11z" opacity=".11"/>
    <path d="m28 39 32-16v-2l-32 16z" opacity=".29"/>
    <path d="m38 12-27 14 17 8 27-13z" opacity=".15"/>
  </g>
  <g class="basement-cat" transform="matrix(.6 0 0 .6 440 456)">
    <path d="m54.4 127.4c9.1 5.9 23.5 12.9 10.6 19.8-13.7 7.3-31.9-1.3-38.7-9.2-9.1-10.5-19.4-14-23.9-15.2-3.7-1-3.8-3.1 4.4-1.8 1.4.2 11.6 1.5 21.6 2.9 10.2 1.4 23.2 1.7 26 3.5z" opacity=".2"/>
    <path d="m46.3 127.9s.8 2.9 2.8 4.1 6.1 3.4 6.5 4.3 1.4 3 3.5 2.6 4.8-2.2 4.1-3.5-1.7-.9-3.8-1.4-5.2-2.4-6-3.7c-.9-1.3-1.7-4-1.7-4z" fill="#f90"/>
    <path d="m46.3 127.9s.8 2.9 2.8 4.1 6.1 3.4 6.5 4.3 1.4 3 3.5 2.6 4.8-2.2 4.1-3.5-1.7-.9-3.8-1.4-5.2-2.4-6-3.7c-.9-1.3-1.7-4-1.7-4z" opacity=".2"/>
    <path d="m19.4 120.4s-8.5-1.5-12-8.3c-3.4-6.8-2-12.3-2.9-13.9s-3.1-1.2-3.6.6-1.2 13.5 4.9 19.8c6.3 6.3 13.8 7.8 13.8 7.8s1.8 6.3 5.5 8 5.1.5 5.1.5-.9 2-.2 3.1c.7 1 8.4 3.1 9.5 4 1.1 1 2.1 3.8 4.9 2.8s3.7-2.1 3-3.4-2.6-1.8-4-1.9-6.5-2.5-6.5-2.5 2.2-2.1 2.7-3.7.3-2.7.3-2.7l6.9-2.6s1.2 5.4 1.5 9.2.5 5.6.9 7.4c.4 1.9.2 4.3 3.3 4s4.3-1.1 3.9-2.3-2.4-2.4-2.8-4.6c-.4-2.1.1-12.9.4-14 .2-1.1 2.5-7.1 2.5-7.1l2.5-.5s1.1 7.8 1.5 11.3.7 9.2.7 10.4.7 2.6 2.2 2.7c1.5.2 4.6-.8 4.5-2.1s-2.3-3.1-2.5-4.6-.5-14.8.9-19.4 2.4-7.1 2.4-7.1l-8.7-19.8s-3.5.8-7.9.7c-4.5-.1-17.8-.1-25.4 9.5-7.8 9.7-7.3 18.7-7.3 18.7z" fill="#f90"/>
    <path d="m56.3 120.7s2.5-2.1 2.7-4.9 1.8-5.1 3.2-6c1.4-1 6.2-3.4 6.2-3.4s1.3 4.3-.5 7.3-4.8 5.4-7.3 6.2-4.3.8-4.3.8z" fill="#fc0"/>
    <path d="m46.8 128s-.7-3.1-1-5.4c-.2-2.4-.9-6-.9-6s-.9 2.1-2.8 3-3.7 1.3-5.3.6-5.4-2.7-5.4-2.7 5.7 3.8 6.8 6.9c1.2 3.1 1.6 6.3 1.6 6.3z" opacity=".2"/>
    <path d="m58.2 96s-.5 2.8.7 5.7c1.3 2.9 4 5.2 5.4 6.9 1.3 1.6 2.8 3.2 5.8 2.9 3-.4 3.2-1.9 4.1-3.1s4.1-5.7 4.6-8.7c.5-3.1.1-5.3.1-5.3s2.1-7.3.5-8.2-3.2 2.7-5.1 2.9c-2 .2-2.9-.3-5.1-.2s-5.7 1-5.7 1-3.3-3.4-5.3-2.7c-2.4.9 0 8.8 0 8.8z" fill="#f90"/>
    <g fill="#2d3134">
      <path d="m69.7 110.5c-.6 0-1.7-1-1.6-1.5s2.9-.5 3.1.1c.2.5-.9 1.4-1.5 1.4z"/>
      <path d="m72 104.4s.3-1.8 1.8-2.4 2.1-.3 2.1-.3-.3 1.7-1.5 2.3c-1.1.6-2.4.4-2.4.4z"/>
      <path d="m67.3 104.4s-.6-1.8-2-2.3-2.4 0-2.4 0 .2 1.5 1.4 2 3 .3 3 .3z"/>
    </g>
    <path d="m72.9 93.3s4.8-7.5 6.4-6.9c1.2.4-.4 8-.4 8s-1.3-1.2-3-1.5c-1.6-.3-3 .4-3 .4z" opacity=".2"/>
    <path d="m65.2 93.2s-5.3-6.3-6.9-5.8c-2.2.7-.1 8.6-.1 8.6s1.6-2.1 2.9-2.6 4.1-.2 4.1-.2z" opacity=".2"/>
  </g>
  <a class="svg-link" href="https://tinyscreams.itch.io/mouse-trap" target="_blank">
    <g class="svg-item mouse-and-cheese">
      <g transform="matrix(.6 0 0 .6 832 252)">
        <path d="m32.8 6c-1.6-2.5-4.4-4.4-8.7-6l-14.1 9.7v9.7l22.8-3.7z" fill="#f90"/>
        <path d="m10 19.4 22.8-3.7v-9.7l-22.8 3.7z" fill="#fc0"/>
        <path d="m10 19.4 22.8-3.7v-9.7l-22.8 3.7z" opacity=".15"/>
        <circle cx="13.6" cy="14.2" opacity=".15" r="1.1"/>
        <circle cx="22.9" cy="10.4" opacity=".15" r="1.6"/>
        <circle cx="28.2" cy="14.8" opacity=".15" r="1.3"/>
      </g>
      <g transform="matrix(.7 0 0 .7 840 220)">
        <path d="m24.3 35.1c3.8-1.5 8.3-5.6 4.9-8.3-4.5-3.6-10.7 1.1-14.1 3-5.2 2.7-6.6 6.2-4.4 7.2 2.2.9 6.3 1 13.6-1.9z" opacity=".2"/>
        <path d="m28 25.2c-.1-.3-.3-.5-.5-.8-2-2.5-6.2-4.5-10-1.3s-2 3.8-3.8 4.7c-.3.2-.7.3-1 .4-.2-.9-.6-2-.6-2s-1.2.9-1.6 1.9c-.2.5-.3 1-.3 1.4-.2.5-.5.9-.7 1.5-1 2.6-1.5 4.9 0 5 1.2.1 2.2-1.2 3.6-1.3 1.9 0 4.1-1.4 4.1-1.4s.2 1.3-.5 1.9c-.6.5-.5 1.3.6.9s4.1-4.7 4.1-4.7l2.8-2.2s1.3.5.5 1.3.1 1.5 1.4.6c.8-.5 1.8-1.9 2.1-3.5.6.6 1.5 1.6 1 3-.7 2-8.9 5.5-8.9 5.5s4.9-1 8.6-3.3c3.7-2.2.9-6.7-.9-7.6z" fill="#e5e5e5"/>
        <path d="m13.5 31s.5-.5 1.6-.5 1.9.5 1.9.5-.4 1.2-1.6 1.8-1.4.2-1.4.2z" fill="#fff" opacity=".35"/>
        <g fill="#2d3134">
          <path d="m12 32.7c-.1 0 .6-.6.9-.4.2.2-.2.9-.9.4z"/>
          <path d="m8.8 35.5c-.3 0-.4-.7-.2-.9.2-.1.5-.1.6.2.2.2-.2.7-.4.7z"/>
        </g>
      </g>
    </g>
  </a>
  <g class="cucumber" transform="matrix(.6 0 0 .6 416 548)">
    <path d="m19.6 9.4c-9.4-2.1-15.4-10.5-18.4-7.9-4.8 4 5.9 14.2 16.5 16.5s24.6-2.5 21.9-8.1c-1.1-2.4-10.6 1.5-20-.5z" fill="#539b00"/>
    <path d="m17.7 15.5c-8-1.8-16.1-8-17.5-12.7-1.8 4.6 7.9 13.1 17.5 15.2 10.5 2.3 24.4-2.4 22-8-1.9 4.4-13.1 7.4-22 5.5z" opacity=".15"/>
  </g>
  <g transform="matrix(.6 0 0 .6 504 548)">
    <path d="m10 0c-4.4 0-8 1.8-8 4l2 12c0 1.7 2.7 3 6 3s6-1.3 6-3l2-12c0-2.2-3.6-4-8-4z" fill="#fc0"/>
    <path d="m10 8c-4.4 0-8-1.8-8-4l2 12c0 1.7 2.7 3 6 3s6-1.3 6-3l2-12c0 2.2-3.6 4-8 4z" opacity=".2"/>
    <ellipse cx="10" cy="4" fill="#e5e5e5" rx="8" ry="4"/>
  </g>
  <g transform="matrix(.6 0 0 .6 480 564)">
    <path d="m10 0c-4.4 0-8 1.8-8 4l2 12c0 1.7 2.7 3 6 3s6-1.3 6-3l2-12c0-2.2-3.6-4-8-4z" fill="#39c"/>
    <path d="m10 8c-4.4 0-8-1.8-8-4l2 12c0 1.7 2.7 3 6 3s6-1.3 6-3l2-12c0 2.2-3.6 4-8 4z" opacity=".2"/>
    <ellipse cx="10" cy="4" fill="#e5e5e5" rx="8" ry="4"/>
  </g>
  <g transform="matrix(.26666667 0 0 .26666667 488 557.333333)">
    <path d="m20.6 16.7s-9.5-16.3-11.8-15.5 2.5 10.7 2.5 10.7-11 2-10.3 4.2 19.6.6 19.6.6z" fill="#fbd7c7"/>
    <path d="m20.6 16.7s-9.5-16.3-11.8-15.5 2.5 10.7 2.5 10.7-11 2-10.3 4.2 19.6.6 19.6.6z" fill="#cc291f" opacity=".2"/>
    <path d="m12.9 12.8s-2.6-7.4-2-10.2c-.9-1-1.7-1.6-2.2-1.4-2.3.7 2.5 10.7 2.5 10.7s-10.9 2-10.2 4.2c.2.5 1.1.8 2.5.9 2-2 9.4-4.2 9.4-4.2z" fill="#cc291f" opacity=".5"/>
    <path d="m59.4 36.7c-1.9 3.7-14 3.2-26.1-3.1s-17.7-19.5-17.7-19.5 14-3.2 26.1 3.1 19.7 15.7 17.7 19.5z" fill="#fbd7c7"/>
    <g fill="#cc291f">
      <path d="m40 20.5c9.2 4.7 16.2 10.9 19.5 15.9 1.5-3.9-6-13.1-17.8-19.2-12.1-6.2-26.1-3.1-26.1-3.1s.2.6.7 1.6c6.1-.2 15.3.4 23.7 4.8z" opacity=".5"/>
      <path d="m41.9 31.2s-9.5 0-10-2.8 10 2.8 10 2.8z" opacity=".3"/>
      <circle cx="51.9" cy="32.9" r="1"/>
      <path d="m44.9 30.8c1-2 3-3.3 5.1-3.5-2.5-.6-5.1.5-6.3 2.9-1.3 2.3-.7 5.1 1.3 6.8-1-1.9-1.2-4.2-.1-6.2z" opacity=".3"/>
    </g>
  </g>
  <g class="x-ray" transform="matrix(1.875 -.93749995 0 1.875 504 106.999999)">
    <path d="m0 0h32v32h-32z" fill="#2d3134"/>
    <path d="m31.1 6.5c-1.1-2.2-8.9-4.5-8.9-4.5h-12.4s-7.8 2.3-8.8 4.5c-1.1 2.3 2.3 4.9 3.6 13.5.6 3.9 1.5 9.4 1.5 9.4h19.8s.9-5.4 1.5-9.4c1.3-8.6 4.7-11.2 3.7-13.5z" fill="#e5e5e5" opacity=".3"/>
    <path d="m26.9 9.8c-1.2-4.8-3.7-7-4.8-7.8h-12.2c-1.1.8-3.7 3-4.8 7.8-.7 3.1-.6 7.8-.2 11.9.6 3.7 1.2 7.7 1.2 7.7h19.8s.7-4.1 1.2-7.7c.4-4.1.5-8.9-.2-11.9z" fill="#e5e5e5" opacity=".8"/>
    <g fill="#2d3134">
      <path d="m21.7 14.1c1.9.5 3.5 2 4.3 2.9 0-.5 0-1-.1-1.5 0-.2-.1-.4-.2-.5-.6-.8-2.3-2.7-4.3-3.1-1.8-.4-3.5.4-4.3.8-.3.2-.5.5-.5.8v.1c0 .6.6 1.1 1.2.8 1.1-.4 2.5-.7 3.9-.3z"/>
      <path d="m21.6 8.2c1.5.4 2.9 1.5 3.8 2.5-.1-.5-.2-1-.3-1.4-.2-.7-.6-1.4-1.2-1.9-.7-.6-1.6-1.2-2.5-1.4-1.8-.4-3.7.6-4.4 1.2-.2.2-.4.4-.4.7 0 .6.7 1 1.2.8 1.1-.5 2.4-.8 3.8-.5z"/>
      <path d="m21.7 11.1c1.8.4 3.3 1.9 4.2 2.8-.1-.6-.1-1.1-.2-1.7 0-.2-.1-.3-.2-.5-.8-.9-2.3-2.5-4-2.9-1.8-.4-3.6.5-4.4 1-.3.2-.4.5-.4.8 0 .6.7 1.1 1.2.8 1-.3 2.4-.6 3.8-.3z"/>
      <path d="m21.8 17c1.9.5 3.4 1.9 4.3 2.8 0-.5 0-1.1 0-1.7s-2-2.8-4.5-3.4c-1.7-.4-3.4.2-4.3.7-.3.2-.5.5-.5.8v.1c0 .6.6 1 1.2.9 1-.3 2.4-.6 3.8-.2z"/>
      <path d="m21.7 20.6c-1.8-.5-3.6.1-4.5.5-.2.1-.3.3-.3.5 0 .3.3.6.6.5.8 0 2.3 0 4.4.5 3.3.8 3.8 3.1 3.8 3.1s.1-.6.1-1.6c0-.4-.1-.8-.4-1.1-.7-.7-2.1-1.9-3.7-2.4z"/>
      <path d="m21.6 5.3c.9.2 1.7.7 2.4 1.2-.2-.3-.4-.6-.6-.8-2.9-3.2-5.1-2.1-6.1-.3-.2.3.1.6.4.5 1-.5 2.4-1 3.9-.6z"/>
      <path d="m21.9 19.9c1.8.5 3.3 1.8 4.1 2.6 0-.4 0-.8.1-1.3 0-.2-.1-.5-.2-.6-.6-.7-2.3-2.4-4.2-2.9-1.7-.4-3.3.1-4.2.5-.3.1-.6.5-.6.9v.1c0 .6.6 1 1.1.9 1-.3 2.4-.5 3.9-.2z"/>
      <path d="m10.5 14.8c-2.4.6-4.5 3.3-4.5 3.3l-.1-.1v1.8c.8-.9 2.4-2.4 4.3-2.9 1.4-.4 2.8-.1 3.8.2.6.2 1.2-.3 1.2-.9v-.1c0-.4-.2-.7-.5-.8-.9-.3-2.5-.9-4.2-.5z"/>
      <path d="m10.5 17.7c-2.5.6-4.5 3.2-4.5 3.2 0 .6 0 1.2.1 1.7.8-.8 2.3-2.2 4.2-2.7 1.4-.4 2.8-.2 3.8.1.6.2 1.1-.3 1.1-.9v-.2c0-.4-.2-.7-.6-.9-.9-.2-2.5-.7-4.1-.3z"/>
      <path d="m10.6 11.8c-2.4.6-4.5 3.5-4.5 3.5-.1.6-.1 1.2-.1 1.8.8-.9 2.4-2.5 4.4-3 1.4-.3 2.7-.1 3.7.3.6.2 1.2-.2 1.2-.8v-.1c0-.3-.2-.7-.5-.8-.9-.6-2.5-1.3-4.2-.9z"/>
      <path d="m10.5 5.3c1.4-.3 2.7.1 3.7.5.3.1.6-.2.4-.5-1.1-1.7-3.2-2.8-6.1.4-.1.3-.4.6-.6 1 .8-.7 1.7-1.2 2.6-1.4z"/>
      <path d="m10.4 20.6c-1.7.4-3.1 1.7-3.9 2.5-.3.3-.4.7-.4 1.1.1 1 .1 1.5.1 1.5s.6-2.3 3.8-3.1c2.2-.5 3.7-.6 4.4-.5.3 0 .6-.2.6-.5 0-.2-.1-.4-.4-.5-.7-.4-2.5-.9-4.2-.5z"/>
      <path d="m10.6 8.9c-1.8.4-3.4 2.1-4.1 3-.1.1-.2.3-.2.5-.1.6-.1 1.1-.2 1.7.8-1 2.4-2.5 4.3-2.9 1.4-.3 2.7 0 3.7.4.6.2 1.2-.2 1.2-.8 0-.3-.2-.6-.4-.8-.8-.7-2.5-1.5-4.3-1.1z"/>
      <path d="m15.4 7.8c0-.3-.1-.6-.4-.7-.8-.6-2.6-1.5-4.3-1.1-1 .2-2 .9-2.7 1.6-.6.4-.9 1.1-1.1 1.8-.1.5-.2.9-.3 1.4.9-1 2.3-2.2 3.9-2.6 1.4-.3 2.7 0 3.7.4.5.3 1.2-.1 1.2-.8z"/>
    </g>
  </g>
</svg>